<svg width="824" height="292" viewBox="0 0 824 292" fill="none" xmlns="http://www.w3.org/2000/svg">
<path d="M45.0625 86.4199L117.339 59L189.157 86.4199V114.324L117.339 87.1327L45.0625 114.324V86.4199Z" fill="#ED7423"/>
<path d="M45.0625 141.744L117.339 114.324L189.157 141.744V169.648L117.339 142.456L45.0625 169.648V141.744Z" fill="#ED7423"/>
<path d="M117.111 169.648L124.3 191.774H147.564L128.743 205.448L135.932 227.574L117.111 213.899L98.2893 227.574L105.478 205.448L86.6571 191.774H109.922L117.111 169.648Z" fill="#ED7423"/>
<path d="M211.6 59.0459L116.8 23.4961L22 59.0459V132.866C21.9916 165.128 31.4897 194.247 50.8203 220.839C68.8347 245.62 90.736 261.401 116.802 269.188C142.855 261.409 164.751 245.634 182.766 220.854C202.097 194.262 211.6 165.135 211.6 132.86V59.0459ZM233.592 134.592C233.253 170.898 222.243 203.964 200.561 233.79L199.523 235.202C177.66 264.693 150.085 283.626 116.8 292C83.5051 283.616 55.9263 264.679 34.0625 235.188L33.0254 233.775C10.9989 203.476 -0.00966406 169.837 6.36561e-06 132.86V43.7998L116.8 0L233.6 43.7998V132.86L233.592 134.592Z" fill="#010101"/>
<path d="M794.046 218.029L780.017 167.776H764.522V218.029H735.627V73.9712H784.205C794.534 73.9712 802.282 75.7161 807.446 79.2058C812.751 82.6956 816.311 87.7209 818.125 94.2817C819.94 100.842 820.847 109.637 820.847 120.664C820.847 131.134 819.87 139.788 817.916 146.628C816.101 153.468 812.332 158.633 806.609 162.123L823.988 218.029H794.046ZM777.295 142.859C781.901 142.859 785.182 142.371 787.136 141.394C789.09 140.277 790.347 138.323 790.905 135.531C791.603 132.599 791.952 127.714 791.952 120.874C791.952 114.173 791.603 109.427 790.905 106.635C790.347 103.844 789.09 101.959 787.136 100.982C785.182 99.8653 781.901 99.3069 777.295 99.3069H764.522V142.859H777.295Z" fill="#010101"/>
<path d="M653.777 218.029V73.9712H723.712V99.3069H682.673V132.599H718.059V157.935H682.673V192.693H723.712V218.029H653.777Z" fill="#010101"/>
<path d="M578.064 218.029V73.9712H644.859V99.3069H606.96V135.95H640.252V161.285H606.96V218.029H578.064Z" fill="#010101"/>
<path d="M520.512 219.704C505.994 219.704 495.665 217.61 489.523 213.422C483.381 209.095 479.542 202.255 478.006 192.903C476.471 183.41 475.703 167.776 475.703 146C475.703 124.084 476.471 108.45 478.006 99.0975C479.542 89.7449 483.381 82.9747 489.523 78.787C495.665 74.4597 505.994 72.296 520.512 72.296C535.029 72.296 545.359 74.4597 551.501 78.787C557.643 82.9747 561.482 89.7449 563.017 99.0975C564.553 108.45 565.32 124.084 565.32 146C565.32 167.776 564.553 183.41 563.017 192.903C561.482 202.255 557.643 209.095 551.501 213.422C545.359 217.61 535.029 219.704 520.512 219.704ZM520.512 194.368C526.095 194.368 529.864 193.6 531.819 192.065C533.773 190.529 535.029 186.761 535.588 180.758C536.146 174.756 536.425 163.17 536.425 146C536.425 128.83 536.146 117.244 535.588 111.242C535.029 105.239 533.773 101.471 531.819 99.935C529.864 98.3995 526.095 97.6318 520.512 97.6318C514.928 97.6318 511.159 98.3995 509.205 99.935C507.251 101.471 505.994 105.239 505.436 111.242C504.878 117.244 504.598 128.83 504.598 146C504.598 163.17 504.878 174.756 505.436 180.758C505.994 186.761 507.251 190.529 509.205 192.065C511.159 193.6 514.928 194.368 520.512 194.368Z" fill="#010101"/>
<path d="M420.873 219.704C406.356 219.704 396.026 217.61 389.884 213.422C383.742 209.095 379.903 202.255 378.368 192.903C376.832 183.41 376.064 167.776 376.064 146C376.064 124.084 376.832 108.45 378.368 99.0975C379.903 89.7449 383.742 82.9747 389.884 78.787C396.026 74.4597 406.356 72.296 420.873 72.296C435.391 72.296 445.72 74.4597 451.862 78.787C458.004 82.9747 461.843 89.7449 463.379 99.0975C464.914 108.45 465.682 124.084 465.682 146C465.682 167.776 464.914 183.41 463.379 192.903C461.843 202.255 458.004 209.095 451.862 213.422C445.72 217.61 435.391 219.704 420.873 219.704ZM420.873 194.368C426.457 194.368 430.226 193.6 432.18 192.065C434.134 190.529 435.391 186.761 435.949 180.758C436.507 174.756 436.786 163.17 436.786 146C436.786 128.83 436.507 117.244 435.949 111.242C435.391 105.239 434.134 101.471 432.18 99.935C430.226 98.3995 426.457 97.6318 420.873 97.6318C415.289 97.6318 411.521 98.3995 409.566 99.935C407.612 101.471 406.356 105.239 405.797 111.242C405.239 117.244 404.96 128.83 404.96 146C404.96 163.17 405.239 174.756 405.797 180.758C406.356 186.761 407.612 190.529 409.566 192.065C411.521 193.6 415.289 194.368 420.873 194.368Z" fill="#010101"/>
<path d="M340.018 218.029L325.99 167.776H310.495V218.029H281.6V73.9712H330.177C340.507 73.9712 348.254 75.7161 353.419 79.2058C358.724 82.6956 362.283 87.7209 364.098 94.2817C365.913 100.842 366.82 109.637 366.82 120.664C366.82 131.134 365.843 139.788 363.888 146.628C362.074 153.468 358.305 158.633 352.582 162.123L369.961 218.029H340.018ZM323.267 142.859C327.874 142.859 331.154 142.371 333.109 141.394C335.063 140.277 336.319 138.323 336.878 135.531C337.576 132.599 337.925 127.714 337.925 120.874C337.925 114.173 337.576 109.427 336.878 106.635C336.319 103.844 335.063 101.959 333.109 100.982C331.154 99.8653 327.874 99.3069 323.267 99.3069H310.495V142.859H323.267Z" fill="#010101"/>
</svg>
